<svg width="40" height="40" viewBox="0 0 40 40" fill="none" xmlns="http://www.w3.org/2000/svg">
<g clip-path="url(#clip0_6_706)">
<rect width="40" height="40" rx="10" fill="white"/>
<path d="M20.0072 -2C10.8224 -2 8.13618 -1.99052 7.61404 -1.9472C5.72916 -1.79047 4.55627 -1.49362 3.27848 -0.857257C2.29374 -0.368139 1.51712 0.198832 0.750649 0.993607C-0.645243 2.44302 -1.49124 4.22619 -1.79749 6.34581C-1.94638 7.37482 -1.9897 7.58469 -1.9985 12.8408C-2.00188 14.5928 -1.9985 16.8986 -1.9985 19.9914C-1.9985 29.1712 -1.98834 31.8554 -1.94435 32.3767C-1.79207 34.2113 -1.50444 35.3656 -0.895319 36.6282C0.26877 39.045 2.49204 40.8593 5.11124 41.5363C6.01815 41.7698 7.01981 41.8985 8.30572 41.9594C8.85054 41.9831 14.4036 42 19.9601 42C25.5166 42 31.0731 41.9932 31.6044 41.9662C33.0934 41.8961 33.958 41.78 34.9139 41.5329C36.2127 41.1997 37.423 40.587 38.4605 39.7376C39.4979 38.8881 40.3375 37.8223 40.9205 36.6146C41.5178 35.3825 41.8207 34.1843 41.9577 32.4454C41.9875 32.0663 42 26.0219 42 19.9856C42 13.9483 41.9865 7.91505 41.9567 7.53595C41.8179 5.76903 41.5151 4.58093 40.8985 3.32513C40.3926 2.29713 39.8309 1.52944 39.0153 0.744478C37.5602 -0.646039 35.7802 -1.49226 33.6588 -1.79826C32.6311 -1.94686 32.4264 -1.99086 27.1677 -2H20.0072Z" fill="url(#paint0_radial_6_706)"/>
<path d="M20.0072 -2C10.8224 -2 8.13618 -1.99052 7.61404 -1.9472C5.72916 -1.79047 4.55627 -1.49362 3.27848 -0.857257C2.29374 -0.368139 1.51712 0.198832 0.750649 0.993607C-0.645243 2.44302 -1.49124 4.22619 -1.79749 6.34581C-1.94638 7.37482 -1.9897 7.58469 -1.9985 12.8408C-2.00188 14.5928 -1.9985 16.8986 -1.9985 19.9914C-1.9985 29.1712 -1.98834 31.8554 -1.94435 32.3767C-1.79207 34.2113 -1.50444 35.3656 -0.895319 36.6282C0.26877 39.045 2.49204 40.8593 5.11124 41.5363C6.01815 41.7698 7.01981 41.8985 8.30572 41.9594C8.85054 41.9831 14.4036 42 19.9601 42C25.5166 42 31.0731 41.9932 31.6044 41.9662C33.0934 41.8961 33.958 41.78 34.9139 41.5329C36.2127 41.1997 37.423 40.587 38.4605 39.7376C39.4979 38.8881 40.3375 37.8223 40.9205 36.6146C41.5178 35.3825 41.8207 34.1843 41.9577 32.4454C41.9875 32.0663 42 26.0219 42 19.9856C42 13.9483 41.9865 7.91505 41.9567 7.53595C41.8179 5.76903 41.5151 4.58093 40.8985 3.32513C40.3926 2.29713 39.8309 1.52944 39.0153 0.744478C37.5602 -0.646039 35.7802 -1.49226 33.6588 -1.79826C32.6311 -1.94686 32.4264 -1.99086 27.1677 -2H20.0072Z" fill="url(#paint1_radial_6_706)"/>
<path d="M19.997 3.75437C15.5857 3.75437 15.0321 3.77367 13.2995 3.85254C11.5703 3.93174 10.3899 4.20558 9.35714 4.60737C8.28881 5.02236 7.38258 5.57748 6.47974 6.48091C5.57622 7.384 5.02124 8.29048 4.60501 9.35876C4.20232 10.3922 3.92822 11.5732 3.85039 13.3022C3.77323 15.0352 3.75293 15.5893 3.75293 20.0019C3.75293 24.4145 3.77255 24.9665 3.85106 26.6996C3.93059 28.4293 4.20435 29.6099 4.60569 30.643C5.0209 31.7116 5.57588 32.6181 6.47906 33.5212C7.38157 34.425 8.2878 34.9814 9.35544 35.3964C10.3889 35.7982 11.5696 36.0721 13.2985 36.1513C15.0311 36.2301 15.5843 36.2494 19.9954 36.2494C24.407 36.2494 24.959 36.2301 26.6916 36.1513C28.4208 36.0721 29.6025 35.7982 30.6359 35.3964C31.7039 34.9814 32.6088 34.425 33.5113 33.5212C34.4148 32.6181 34.9698 31.7116 35.386 30.6434C35.7853 29.6099 36.0594 28.429 36.1407 26.6999C36.2185 24.9669 36.2388 24.4145 36.2388 20.0019C36.2388 15.5893 36.2185 15.0356 36.1407 13.3025C36.0594 11.5728 35.7853 10.3922 35.386 9.35909C34.9698 8.29048 34.4148 7.384 33.5113 6.48091C32.6078 5.57714 31.7043 5.02202 30.6349 4.60737C29.5994 4.20558 28.4184 3.93174 26.6892 3.85254C24.9566 3.77367 24.405 3.75437 19.9923 3.75437H19.997ZM18.5399 6.68231C18.9724 6.68164 19.4549 6.68231 19.997 6.68231C24.334 6.68231 24.848 6.69789 26.5606 6.77574C28.1443 6.84818 29.0038 7.11287 29.5764 7.33526C30.3344 7.62975 30.8748 7.98178 31.443 8.55044C32.0115 9.11911 32.3635 9.66069 32.6585 10.4189C32.8809 10.991 33.1458 11.8507 33.2179 13.4349C33.2957 15.1476 33.3127 15.6621 33.3127 19.9982C33.3127 24.3342 33.2957 24.8487 33.2179 26.5615C33.1455 28.1456 32.8809 29.0054 32.6585 29.5775C32.3641 30.3357 32.0115 30.8756 31.443 31.4439C30.8745 32.0125 30.3348 32.3646 29.5764 32.6591C29.0045 32.8825 28.1443 33.1465 26.5606 33.2189C24.8483 33.2968 24.334 33.3137 19.997 33.3137C15.6598 33.3137 15.1458 33.2968 13.4335 33.2189C11.8498 33.1458 10.9902 32.8811 10.4173 32.6587C9.65932 32.3642 9.11789 32.0122 8.54938 31.4435C7.98087 30.8749 7.62894 30.3347 7.33385 29.5761C7.11153 29.0041 6.84656 28.1443 6.77448 26.5602C6.69665 24.8474 6.68108 24.3329 6.68108 19.9941C6.68108 15.6553 6.69665 15.1436 6.77448 13.4308C6.8469 11.8467 7.11153 10.9869 7.33385 10.4142C7.62826 9.65595 7.98087 9.11437 8.54938 8.5457C9.11789 7.97704 9.65932 7.62501 10.4173 7.32985C10.9899 7.10644 11.8498 6.84242 13.4335 6.76965C14.9319 6.70195 15.5126 6.68164 18.5399 6.67825V6.68231ZM28.6675 9.38008C28.2819 9.38008 27.9051 9.49445 27.5845 9.70871C27.2639 9.92298 27.0141 10.2275 26.8666 10.5838C26.7191 10.9401 26.6805 11.3322 26.7558 11.7104C26.8311 12.0886 27.0168 12.436 27.2894 12.7087C27.5621 12.9813 27.9095 13.167 28.2876 13.2421C28.6658 13.3173 29.0577 13.2786 29.4139 13.1309C29.77 12.9832 30.0744 12.7332 30.2885 12.4125C30.5026 12.0918 30.6168 11.7148 30.6166 11.3291C30.6166 10.2527 29.7436 9.37941 28.6675 9.37941V9.38008ZM19.997 11.6581C15.3904 11.6581 11.6555 15.394 11.6555 20.0019C11.6555 24.6098 15.3904 28.344 19.997 28.344C24.6037 28.344 28.3375 24.6098 28.3375 20.0019C28.3375 15.394 24.6037 11.6581 19.997 11.6581ZM19.997 14.5861C22.9871 14.5861 25.4114 17.0107 25.4114 20.0019C25.4114 22.9928 22.9871 25.4177 19.997 25.4177C17.0066 25.4177 14.5827 22.9928 14.5827 20.0019C14.5827 17.0107 17.0066 14.5861 19.997 14.5861Z" fill="white"/>
</g>
<defs>
<radialGradient id="paint0_radial_6_706" cx="0" cy="0" r="1" gradientUnits="userSpaceOnUse" gradientTransform="translate(9.68756 45.3889) rotate(-90) scale(43.6073 40.5582)">
<stop stop-color="#FFDD55"/>
<stop offset="0.1" stop-color="#FFDD55"/>
<stop offset="0.5" stop-color="#FF543E"/>
<stop offset="1" stop-color="#C837AB"/>
</radialGradient>
<radialGradient id="paint1_radial_6_706" cx="0" cy="0" r="1" gradientUnits="userSpaceOnUse" gradientTransform="translate(-9.37023 1.16969) rotate(78.6806) scale(19.4926 80.3494)">
<stop stop-color="#3771C8"/>
<stop offset="0.128" stop-color="#3771C8"/>
<stop offset="1" stop-color="#6600FF" stop-opacity="0"/>
</radialGradient>
<clipPath id="clip0_6_706">
<rect width="40" height="40" rx="10" fill="white"/>
</clipPath>
</defs>
</svg>
