<svg width="25" height="24" viewBox="0 0 25 24" fill="none" xmlns="http://www.w3.org/2000/svg">
<path fill-rule="evenodd" clip-rule="evenodd" d="M13.207 2.29303C13.0195 2.10556 12.7652 2.00024 12.5 2.00024C12.2348 2.00024 11.9805 2.10556 11.793 2.29303L4.79299 9.29303L2.79299 11.293C2.69748 11.3853 2.6213 11.4956 2.56889 11.6176C2.51648 11.7396 2.48889 11.8709 2.48774 12.0036C2.48659 12.1364 2.51189 12.2681 2.56217 12.391C2.61245 12.5139 2.6867 12.6255 2.78059 12.7194C2.87449 12.8133 2.98614 12.8876 3.10904 12.9379C3.23193 12.9881 3.36361 13.0134 3.49639 13.0123C3.62917 13.0111 3.76039 12.9835 3.88239 12.9311C4.0044 12.8787 4.11474 12.8025 4.20699 12.707L4.49999 12.414V19C4.49999 19.7957 4.81606 20.5587 5.37867 21.1214C5.94128 21.684 6.70434 22 7.49999 22H17.5C18.2956 22 19.0587 21.684 19.6213 21.1214C20.1839 20.5587 20.5 19.7957 20.5 19V12.414L20.793 12.707C20.9816 12.8892 21.2342 12.99 21.4964 12.9877C21.7586 12.9854 22.0094 12.8803 22.1948 12.6948C22.3802 12.5094 22.4854 12.2586 22.4877 11.9964C22.4899 11.7342 22.3891 11.4816 22.207 11.293L13.207 2.29303Z" fill="white"/>
</svg>
