<svg width="28" height="28" viewBox="0 0 28 28" fill="none" xmlns="http://www.w3.org/2000/svg">
<path d="M14.0046 0C8.1597 0 6.4503 0.00603128 6.11802 0.0336028C4.91856 0.133334 4.17217 0.322243 3.35903 0.7272C2.73238 1.03846 2.23817 1.39926 1.75041 1.90502C0.862118 2.82738 0.323758 3.96212 0.128872 5.31097C0.0341201 5.9658 0.00655603 6.09935 0.000957085 9.44412C-0.00119636 10.559 0.000957085 12.0264 0.000957085 13.9945C0.000957085 19.8362 0.00741741 21.5444 0.0354121 21.8761C0.132317 23.0436 0.31536 23.7781 0.702979 24.5816C1.44376 26.1195 2.85857 27.2741 4.52534 27.7049C5.10246 27.8535 5.73988 27.9354 6.55819 27.9741C6.90489 27.9892 10.4387 28 13.9746 28C17.5106 28 21.0465 27.9957 21.3846 27.9785C22.3321 27.9339 22.8823 27.86 23.4907 27.7027C24.3171 27.4907 25.0874 27.1008 25.7476 26.5603C26.4078 26.0197 26.942 25.3414 27.3131 24.5729C27.6931 23.7889 27.8859 23.0263 27.9731 21.9198C27.992 21.6786 28 17.8321 28 13.9908C28 10.1489 27.9914 6.30958 27.9724 6.06833C27.8841 4.94393 27.6914 4.18786 27.2991 3.38872C26.9771 2.73454 26.6196 2.24601 26.1007 1.74649C25.1747 0.861611 24.042 0.323104 22.692 0.12838C22.038 0.0338182 21.9077 0.00581588 18.5613 0H14.0046Z" fill="url(#paint0_radial_6_857)"/>
<path d="M14.0046 0C8.1597 0 6.4503 0.00603128 6.11802 0.0336028C4.91856 0.133334 4.17217 0.322243 3.35903 0.7272C2.73238 1.03846 2.23817 1.39926 1.75041 1.90502C0.862118 2.82738 0.323758 3.96212 0.128872 5.31097C0.0341201 5.9658 0.00655603 6.09935 0.000957085 9.44412C-0.00119636 10.559 0.000957085 12.0264 0.000957085 13.9945C0.000957085 19.8362 0.00741741 21.5444 0.0354121 21.8761C0.132317 23.0436 0.31536 23.7781 0.702979 24.5816C1.44376 26.1195 2.85857 27.2741 4.52534 27.7049C5.10246 27.8535 5.73988 27.9354 6.55819 27.9741C6.90489 27.9892 10.4387 28 13.9746 28C17.5106 28 21.0465 27.9957 21.3846 27.9785C22.3321 27.9339 22.8823 27.86 23.4907 27.7027C24.3171 27.4907 25.0874 27.1008 25.7476 26.5603C26.4078 26.0197 26.942 25.3414 27.3131 24.5729C27.6931 23.7889 27.8859 23.0263 27.9731 21.9198C27.992 21.6786 28 17.8321 28 13.9908C28 10.1489 27.9914 6.30958 27.9724 6.06833C27.8841 4.94393 27.6914 4.18786 27.2991 3.38872C26.9771 2.73454 26.6196 2.24601 26.1007 1.74649C25.1747 0.861611 24.042 0.323104 22.692 0.12838C22.038 0.0338182 21.9077 0.00581588 18.5613 0H14.0046Z" fill="url(#paint1_radial_6_857)"/>
<path d="M13.9981 3.66187C11.1909 3.66187 10.8386 3.67415 9.73603 3.72434C8.63562 3.77475 7.8845 3.94901 7.22727 4.20469C6.54743 4.46877 5.97074 4.82203 5.3962 5.39694C4.82123 5.97164 4.46806 6.54849 4.20319 7.2283C3.94693 7.88592 3.7725 8.63746 3.72297 9.73774C3.67387 10.8406 3.66095 11.1932 3.66095 14.0012C3.66095 16.8092 3.67344 17.1605 3.7234 18.2634C3.77401 19.3641 3.94822 20.1154 4.20362 20.7728C4.46785 21.4529 4.82101 22.0297 5.39577 22.6044C5.97009 23.1795 6.54678 23.5336 7.22619 23.7977C7.88385 24.0534 8.63519 24.2277 9.73538 24.2781C10.8379 24.3283 11.19 24.3405 13.997 24.3405C16.8045 24.3405 17.1557 24.3283 18.2583 24.2781C19.3587 24.2277 20.1107 24.0534 20.7683 23.7977C21.4479 23.5336 22.0238 23.1795 22.5981 22.6044C23.1731 22.0297 23.5262 21.4529 23.7911 20.773C24.0452 20.1154 24.2196 19.3639 24.2713 18.2636C24.3209 17.1607 24.3338 16.8092 24.3338 14.0012C24.3338 11.1932 24.3209 10.8408 24.2713 9.73796C24.2196 8.63725 24.0452 7.88592 23.7911 7.22851C23.5262 6.54849 23.1731 5.97164 22.5981 5.39694C22.0231 4.82182 21.4482 4.46856 20.7677 4.20469C20.1087 3.94901 19.3572 3.77475 18.2568 3.72434C17.1542 3.67415 16.8032 3.66187 13.9951 3.66187H13.9981ZM13.0708 5.52511C13.3461 5.52468 13.6531 5.52511 13.9981 5.52511C16.758 5.52511 17.0851 5.53502 18.1749 5.58456C19.1827 5.63066 19.7297 5.7991 20.0941 5.94062C20.5765 6.12802 20.9204 6.35204 21.2819 6.71392C21.6437 7.07579 21.8677 7.42044 22.0554 7.90294C22.1969 8.26697 22.3655 8.81409 22.4114 9.82218C22.4609 10.9121 22.4717 11.2395 22.4717 13.9988C22.4717 16.7582 22.4609 17.0856 22.4114 18.1755C22.3653 19.1836 22.1969 19.7307 22.0554 20.0947C21.8681 20.5772 21.6437 20.9208 21.2819 21.2825C20.9201 21.6443 20.5767 21.8684 20.0941 22.0558C19.7301 22.1979 19.1827 22.3659 18.1749 22.412C17.0853 22.4616 16.758 22.4724 13.9981 22.4724C11.2381 22.4724 10.9109 22.4616 9.8213 22.412C8.81349 22.3655 8.26652 22.1971 7.90194 22.0556C7.41957 21.8682 7.07502 21.6441 6.71324 21.2823C6.35146 20.9204 6.12751 20.5766 5.93973 20.0939C5.79824 19.7299 5.62963 19.1827 5.58376 18.1746C5.53423 17.0847 5.52433 16.7573 5.52433 13.9963C5.52433 11.2352 5.53423 10.9095 5.58376 9.8196C5.62985 8.81151 5.79824 8.26439 5.93973 7.89992C6.12708 7.41742 6.35146 7.07278 6.71324 6.7109C7.07502 6.34903 7.41957 6.12501 7.90194 5.93717C8.2663 5.79501 8.81349 5.62699 9.8213 5.58068C10.7748 5.5376 11.1444 5.52468 13.0708 5.52252V5.52511ZM19.5157 7.24187C19.2703 7.24187 19.0305 7.31465 18.8265 7.451C18.6225 7.58735 18.4635 7.78115 18.3697 8.00789C18.2758 8.23462 18.2513 8.48411 18.2991 8.7248C18.347 8.96549 18.4652 9.18656 18.6387 9.36006C18.8122 9.53356 19.0333 9.6517 19.2739 9.69952C19.5146 9.74735 19.764 9.72272 19.9906 9.62874C20.2173 9.53477 20.411 9.37568 20.5472 9.17158C20.6835 8.96749 20.7561 8.72757 20.756 8.48216C20.756 7.79718 20.2005 7.24144 19.5157 7.24144V7.24187ZM13.9981 8.69153C11.0666 8.69153 8.68989 11.0689 8.68989 14.0012C8.68989 16.9335 11.0666 19.3098 13.9981 19.3098C16.9296 19.3098 19.3057 16.9335 19.3057 14.0012C19.3057 11.0689 16.9296 8.69153 13.9981 8.69153ZM13.9981 10.5548C15.9009 10.5548 17.4436 12.0977 17.4436 14.0012C17.4436 15.9045 15.9009 17.4477 13.9981 17.4477C12.0951 17.4477 10.5526 15.9045 10.5526 14.0012C10.5526 12.0977 12.0951 10.5548 13.9981 10.5548Z" fill="white"/>
<defs>
<radialGradient id="paint0_radial_6_857" cx="0" cy="0" r="1" gradientUnits="userSpaceOnUse" gradientTransform="translate(7.43754 30.1566) rotate(-90) scale(27.7501 25.8097)">
<stop stop-color="#FFDD55"/>
<stop offset="0.1" stop-color="#FFDD55"/>
<stop offset="0.5" stop-color="#FF543E"/>
<stop offset="1" stop-color="#C837AB"/>
</radialGradient>
<radialGradient id="paint1_radial_6_857" cx="0" cy="0" r="1" gradientUnits="userSpaceOnUse" gradientTransform="translate(-4.69015 2.01707) rotate(78.6806) scale(12.4044 51.1314)">
<stop stop-color="#3771C8"/>
<stop offset="0.128" stop-color="#3771C8"/>
<stop offset="1" stop-color="#6600FF" stop-opacity="0"/>
</radialGradient>
</defs>
</svg>
